# xmcd CD database file
#
# Track frame offsets:
#	150
#	24775
#	41150
#	60825
#	83787
#	106162
#	128330
#	147025
#	168362
#	193575
#
# Disc length: 2837 seconds
#
# Revision: 1
# Processed by: cddbd v1.5.2PL0 Copyright (c) Steve Scherf et al.
# Submitted via: CDex 1.70beta2
#
DISCID=6e0b130a
DTITLE=梁朝偉 -  一天一點愛戀
DYEAR=1993
DGENRE=Blues
TTITLE0=我會傷了你的心
TTITLE1=一天一點愛戀
TTITLE2=躲開你的眼睛
TTITLE3=不言不語也可以溫柔
TTITLE4=我不是好情人
TTITLE5=只怪當時
TTITLE6=愛到世界末日後
TTITLE7=你是如此難以忘記
TTITLE8=凡塵俗世裡的夢
TTITLE9=情深處回頭 
EXTD=YEAR: 1993
EXTT0=
EXTT1=
EXTT2=
EXTT3=
EXTT4=
EXTT5=
EXTT6=
EXTT7=
EXTT8=
EXTT9=
PLAYORDER=
